<svg width="75" height="17" viewBox="0 0 75 17" fill="none" xmlns="http://www.w3.org/2000/svg">
<path d="M18.3477 3C20.1717 3 21.7202 3.63341 22.9922 4.89941C24.2639 6.1653 24.9003 7.71601 24.9004 9.55176C24.9004 11.3877 24.2641 12.9419 22.9922 14.2139C21.7202 15.4739 20.1717 16.1035 18.3477 16.1035C16.5238 16.1034 14.9788 15.471 13.7129 14.2051C12.4469 12.9391 11.8145 11.3877 11.8145 9.55176C11.8145 7.71599 12.4471 6.16531 13.7129 4.89941C14.9788 3.63349 16.5238 3.00008 18.3477 3ZM4.96777 3.25195C6.04777 3.25195 6.95731 3.58498 7.69531 4.25098C8.43317 4.91692 8.80172 5.76599 8.80176 6.79785C8.80176 7.84185 8.40626 8.68236 7.61426 9.31836C8.71803 9.95436 9.26953 10.9144 9.26953 12.1982C9.26947 13.2661 8.89169 14.1422 8.13574 14.8262C7.37978 15.51 6.44959 15.8516 5.3457 15.8516H0V3.25195H4.96777ZM46.3857 8.81445L50.7061 3.25195H53.5684L48.9062 9.37207L53.748 15.8516H50.8857L46.3857 9.94824V15.8516H43.9023V3.25195H46.3857V8.81445ZM58.9561 13.4756H63.7617V15.8516H56.4717V3.25195H58.9561V13.4756ZM66.7197 3.25195L69.4561 8.50781L72.1924 3.25195H75L70.6797 10.9385V15.8516H68.2139V10.9385L63.9121 3.25195H66.7197ZM34.1035 0C35.9275 0 37.476 0.633414 38.748 1.89941C40.0198 3.16532 40.6562 4.71597 40.6562 6.55176C40.6562 8.38771 40.02 9.94188 38.748 11.2139C37.476 12.4739 35.9275 13.1035 34.1035 13.1035C32.2797 13.1034 30.7346 12.471 29.4688 11.2051C28.2028 9.93909 27.5703 8.38772 27.5703 6.55176C27.5704 4.71602 28.203 3.1653 29.4688 1.89941C30.7346 0.633526 32.2797 0.000111967 34.1035 0Z" fill="white"/>
<path d="M29.83 15.852H38.83" stroke="white" stroke-width="1.5" stroke-linecap="round"/>
</svg>
